<?xml version="1.0" standalone="no"?><!DOCTYPE svg PUBLIC "-//W3C//DTD SVG 1.1//EN" "http://www.w3.org/Graphics/SVG/1.1/DTD/svg11.dtd"><svg t="1750930161634" class="icon" viewBox="0 0 1024 1024" version="1.1" xmlns="http://www.w3.org/2000/svg" p-id="3184" xmlns:xlink="http://www.w3.org/1999/xlink" width="256" height="256"><path d="M408.746667 765.056c-7.808 0-15.658667-1.578667-23.466667-6.4a48.213333 48.213333 0 0 1-23.466667-41.386667V350.976c0-17.493333 9.386667-33.450667 23.466667-41.386667a49.066667 49.066667 0 0 1 46.933333 0l311.338667 183.125334c14.08 7.978667 23.466667 23.893333 23.466667 41.386666 0 17.536-9.386667 33.450667-23.466667 41.429334l-311.338667 183.168c-7.808 3.2-15.658667 6.4-23.466666 6.4z m46.933333-332.842667v200.661334l170.538667-100.352-170.538667-100.309334z" fill="#2c2c2c" p-id="3185"></path><path d="M821.76 938.666667H203.818667C114.645333 938.666667 42.666667 865.408 42.666667 774.613333V292.053333C42.666667 201.258667 114.645333 128 203.818667 128H821.76C909.354667 128 981.333333 201.258667 981.333333 292.053333v484.181334C981.333333 865.365333 909.354667 938.666667 821.76 938.666667zM203.818667 223.573333c-37.546667 0-67.285333 30.250667-67.285334 68.48v484.181334c0 38.186667 29.738667 68.48 67.285334 68.48H821.76c37.546667 0 67.285333-30.293333 67.285333-68.48V292.010667c-1.578667-38.229333-31.317333-68.48-67.285333-68.48H203.818667z" fill="#2c2c2c" p-id="3186"></path></svg>