<?xml version="1.0" standalone="no"?><!DOCTYPE svg PUBLIC "-//W3C//DTD SVG 1.1//EN" "http://www.w3.org/Graphics/SVG/1.1/DTD/svg11.dtd"><svg t="1749624866816" class="icon" viewBox="0 0 1048 1024" version="1.1" xmlns="http://www.w3.org/2000/svg" p-id="2435" width="16.375" height="16" xmlns:xlink="http://www.w3.org/1999/xlink"><path d="M310.598543 86.182563a200.962621 200.962621 0 0 0-200.962621 200.938241v430.595876a200.962621 200.962621 0 0 0 200.962621 200.987001h430.620256a200.962621 200.962621 0 0 0 200.962621-200.962621V287.096424a200.962621 200.962621 0 0 0-200.962621-200.962621H310.598543m0-86.158183h430.620256A287.096424 287.096424 0 0 1 1028.339603 287.120804v430.620256a287.096424 287.096424 0 0 1-287.096424 287.096424H310.598543A287.072044 287.072044 0 0 1 23.526499 717.74106V287.096424C23.526499 128.53026 152.056759 0.04876 310.598543 0.04876v-0.04876z" p-id="2436" fill="#8a8a8a"></path><path d="M489.009857 680.830056V360.942812h-141.402791a36.911004 36.911004 0 1 1-0.097519-73.846388H704.332175a36.911004 36.911004 0 1 1 0 73.846388h-141.402791v319.862864a36.911004 36.911004 0 1 1-73.822008 0h-0.07314z" p-id="2437" fill="#8a8a8a"></path></svg>